<svg xmlns="http://www.w3.org/2000/svg" viewBox="0 0 760 430" fill="none"><defs><linearGradient id="g" x1="80" y1="30" x2="700" y2="400"><stop stop-color="#00D7FF"/><stop offset="1" stop-color="#2F8CFF"/></linearGradient><filter id="glow"><feGaussianBlur stdDeviation="8" result="b"/><feMerge><feMergeNode in="b"/><feMergeNode in="SourceGraphic"/></feMerge></filter></defs><rect width="760" height="430" rx="32" fill="#08182B"/><g opacity=".25" stroke="#3A6585"><path d="M40 80h680M40 160h680M40 240h680M40 320h680M120 35v360M220 35v360M320 35v360M420 35v360M520 35v360M620 35v360"/></g><path d="M45 300 C110 275 120 325 180 270 S260 190 315 235 S390 330 455 245 S530 135 590 190 S655 225 715 105" stroke="url(#g)" stroke-width="7" stroke-linecap="round" filter="url(#glow)"/><path d="M45 335 C130 320 160 350 225 300 S330 285 390 305 S490 350 555 275 S640 260 715 235" stroke="#22C55E" stroke-width="3" stroke-dasharray="8 10" opacity=".7"/><g fill="#00D7FF"><circle cx="315" cy="235" r="7"/><circle cx="455" cy="245" r="7"/><circle cx="590" cy="190" r="7"/></g><g fill="#F8FAFC" font-family="Arial, sans-serif"><text x="48" y="55" font-size="15" opacity=".65">LIVE MARKET FLOW</text><text x="48" y="385" font-size="13" opacity=".5">5m · 15m · 30m</text></g><g transform="translate(575 38)"><rect width="130" height="42" rx="21" fill="#0B2639" stroke="#00D7FF"/><circle cx="23" cy="21" r="6" fill="#22C55E"/><text x="38" y="26" fill="#F8FAFC" font-family="Arial" font-size="13" font-weight="700">LIVE SOURCE</text></g></svg>